<svg version="1.1" id="Layer_1" xmlns:x="ns_extend;" xmlns:i="ns_ai;" xmlns:graph="ns_graphs;" xmlns="http://www.w3.org/2000/svg" xmlns:xlink="http://www.w3.org/1999/xlink" x="0px" y="0px" viewBox="0 0 196 52" style="enable-background:new 0 0 196 52;" xml:space="preserve">
 <style type="text/css">
  .st0{filter:url(#Adobe_OpacityMaskFilter);}
	.st1{fill-rule:evenodd;clip-rule:evenodd;fill:currentColor;}
	.st2{mask:url(#mask-2_1_);fill-rule:evenodd;clip-rule:evenodd;fill:currentColor;}
	.st3{fill-rule:evenodd;clip-rule:evenodd;fill:currentColor;}
	.st4{fill-rule:evenodd;clip-rule:evenodd;fill:currentColor;}
 </style>
 <metadata>
  <sfw xmlns="ns_sfw;">
   <slices>
   </slices>
   <sliceSourceBounds bottomLeftOrigin="true" height="51.9" width="195.5" x="0" y="0">
   </sliceSourceBounds>
  </sfw>
 </metadata>
 <desc>
  Created with Sketch.
 </desc>
 <g id="Official-">
  <g id="BrandPage1" transform="translate(-75.000000, -80.000000)">
   <g id="Labcorp_Logo_Horizontal_Color_RGB" transform="translate(75.000000, 80.000000)">
    <g id="Group-3">
     <g id="Clip-2">
     </g>
     <defs>
      <filter id="Adobe_OpacityMaskFilter" filterUnits="userSpaceOnUse" x="0" y="0.1" width="51.4" height="51.9">
       <feColorMatrix type="matrix" values="1 0 0 0 0  0 1 0 0 0  0 0 1 0 0  0 0 0 1 0">
       </feColorMatrix>
      </filter>
     </defs>
     <mask maskUnits="userSpaceOnUse" x="0" y="0.1" width="51.4" height="51.9" id="mask-2_1_">
      <g class="st0">
       <polygon id="path-1_1_" class="st1" points="0,0.1 51.4,0.1 51.4,52 0,52 						">
       </polygon>
      </g>
     </mask>
     <path id="Fill-1" class="st2" d="M42.3,6.2C53,14.8,54.5,30.7,45.6,42c-8.8,11.6-24.9,13.4-36.1,3.8C-1.6,35.8-3.2,18.9,6,8.4
					C15.3-1.8,31.6-2.7,42.3,6.2">
     </path>
    </g>
    <polygon id="Fill-4" class="st1" points="62.3,36.8 67.7,36.8 67.7,7.7 62.3,7.7 			">
    </polygon>
    <path id="Fill-5" class="st1" d="M80.7,32.2c2.1,0,3.4-0.9,4.3-2.2v-6.5c-0.9-1.2-2.2-2.1-4.3-2.1c-2.9,0-5,2.5-5,5.4
				C75.8,29.8,77.8,32.2,80.7,32.2z M79.9,37.2c-5.9,0-9.8-4.8-9.8-10.4c0-5.6,3.9-10.4,9.8-10.4c2.1,0,3.9,0.8,5.1,1.9v-1.4h5.5
				v19.9H85v-1.5C83.9,36.4,82.1,37.2,79.9,37.2L79.9,37.2z">
    </path>
    <path id="Fill-6" class="st1" d="M103.5,32.2c3,0,5-2.5,5-5.4c0-2.9-2-5.4-5-5.4c-2.1,0-3.4,0.9-4.3,2.1V30
				C100.2,31.3,101.4,32.2,103.5,32.2z M104.3,37.2c-2.1,0-3.9-0.8-5.1-1.9v1.5h-5.5V7.7h5.5v10.6c1.2-1.1,3-1.9,5.1-1.9
				c5.9,0,9.8,4.8,9.8,10.4C114.2,32.4,110.2,37.2,104.3,37.2L104.3,37.2z">
    </path>
    <path id="Fill-7" class="st1" d="M126.5,37.2c-5.9,0-10.5-4.4-10.5-10.4c0-6,4.7-10.4,10.5-10.4c4.1,0,7.7,2.3,9.4,5.7l-4.7,2.5
				c-0.8-1.8-2.5-3.2-4.7-3.2c-2.9,0-5.1,2.2-5.1,5.3c0,3.1,2.2,5.3,5.1,5.3c2.2,0,3.9-1.4,4.7-3.2l4.7,2.5
				C134.2,34.9,130.6,37.2,126.5,37.2">
    </path>
    <path id="Fill-8" class="st1" d="M147.5,32.1c2.9,0,4.9-2.2,4.9-5.3c0-3.1-2.1-5.3-4.9-5.3c-2.9,0-5,2.2-5,5.3
				C142.5,29.9,144.6,32.1,147.5,32.1z M147.5,37.2c-5.8,0-10.5-4.6-10.5-10.4c0-5.8,4.7-10.4,10.5-10.4c5.8,0,10.5,4.6,10.5,10.4
				C158,32.6,153.3,37.2,147.5,37.2L147.5,37.2z">
    </path>
    <path id="Fill-9" class="st1" d="M184.8,32.2c3,0,5-2.5,5-5.4c0-2.9-2-5.4-5-5.4c-2.1,0-3.4,0.9-4.3,2.1V30
				C181.5,31.3,182.7,32.2,184.8,32.2z M175.1,16.9h5.5v1.4c1.2-1.1,3-1.9,5.1-1.9c5.9,0,9.8,4.8,9.8,10.4c0,5.6-3.9,10.4-9.8,10.4
				c-2.1,0-3.9-0.8-5.1-1.9v9.2h-5.5V16.9L175.1,16.9z">
    </path>
    <path id="Fill-10" class="st1" d="M170.4,16.6c-2.1,0-3.9,1.2-4.6,2.6v-2.4h-5.5v19.9h5.5V24.4c2.6-3.8,6.9-2.2,6.9-2.2V17
				C172.3,16.8,171.4,16.6,170.4,16.6">
    </path>
    <path id="Fill-11" class="st3" d="M41.9,8.7c7.9,6.4,9,18,2.4,26.4c-6.5,8.5-18.4,10.1-26.6,3c-8.2-7.3-9.4-20-2.6-27.7
				C22,2.8,34,2.2,41.9,8.7">
    </path>
    <path id="Fill-12" class="st4" d="M41.2,11.1c6,4.8,6.8,13.7,1.8,20c-4.9,6.5-13.9,7.5-20.1,2.1c-6.2-5.6-7.1-15-2-20.9
				C26.1,6.6,35.2,6.2,41.2,11.1">
    </path>
   </g>
  </g>
 </g>
</svg>