<svg version="1.1" id="Layer_1" xmlns="http://www.w3.org/2000/svg" xmlns:xlink="http://www.w3.org/1999/xlink" x="0px" y="0px" viewBox="0 0 222.1 70.3" style="enable-background:new 0 0 222.1 70.3;" xml:space="preserve">
 <style type="text/css">
  .st0{fill:currentColor;}
 </style>
 <g>
  <g>
   <path class="st0" d="M132.3,16.3h4.6v20.1h-4.6v-3.1c-1.3,1.9-3.2,3.5-6.3,3.5c-4.5,0-7.1-3-7.1-7.7V16.3h4.6v11.4
			c0,3.1,1.6,4.9,4.3,4.9c2.7,0,4.5-1.9,4.5-5V16.3 M185.6,30.1v-9.9h6.6l-4-4h-2.6v-5.5H181v20c0,4.4,2.4,5.9,5.8,5.9
			c1.7,0,3-0.4,4.1-1v-3.8c-0.9,0.5-1.8,0.7-2.9,0.7C186.5,32.6,185.6,31.9,185.6,30.1 M112.1,31.3c1.7-2.3,2.7-5.2,2.7-8.2
			c0-7.5-5.7-13.7-13.9-13.7c-8.2,0-14,6.3-14,13.8c0,7.5,5.7,13.7,13.9,13.7c3.1,0,5.9-1,8.1-2.5l2.3,2.1h6.9L112.1,31.3z
			 M108.5,28.1h-6.7l3.7,3.1c-1.3,0.8-2.8,1.3-4.6,1.3c-5.3,0-9.1-4.3-9.1-9.5c0-5.2,3.7-9.4,9-9.4c5.3,0,9,4.3,9,9.5
			C109.9,25,109.4,26.7,108.5,28.1 M171.6,24.5c-2.4-0.8-4.5-1.4-4.5-2.8v-0.1c0-1.2,1-2,2.8-2c1.4,0,3.1,0.5,4.7,1.4l2.8-2.8
			c-2.1-1.4-4.9-2.3-7.4-2.3c-4,0-7.1,2.3-7.1,6.1v0.1c0,3.8,3.3,5.1,6.3,5.9c2.4,0.7,4.5,1.3,4.5,2.8V31c0,1.3-1.1,2.2-3.1,2.2
			c-1.9,0-4-0.7-6-2l-2.7,2.7l0,0c2.5,2,5.7,3,8.5,3c4.2,0,7.5-2.1,7.5-6.3v-0.1C177.8,26.8,174.5,25.4,171.6,24.5 M159.7,26.7
			c0-5.8-3.2-10.8-9.6-10.8c-5.7,0-9.8,4.7-9.8,10.5c0,6.2,4.5,10.5,10.3,10.5c3.6,0,6.2-1.4,8.1-3.6l-2.6-2.6l0,0
			c-1.6,1.6-3.2,2.4-5.4,2.4c-3,0-5.2-1.8-5.8-5.1h14.8C159.7,27.5,159.7,27.2,159.7,26.7 M150.1,19.7c3,0,4.7,2.2,5.1,5h-10.2
			C145.4,21.7,147.3,19.7,150.1,19.7 M108.1,47.7h1.1v11.9h-1.1V47.7z M108,44.7h1.4v-1.4H108V44.7z M104.4,51.5L104.4,51.5
			c0-4.6-3.5-8.2-8.7-8.2h-5.4v16.3h5.4C100.9,59.6,104.4,56,104.4,51.5 M103.2,51.5c0,3.9-2.9,7-7.4,7h-4.2V44.4h4.2
			C100.3,44.4,103.2,47.6,103.2,51.5L103.2,51.5z M122.8,59.6v-7.4c0-3.1-1.9-4.7-5-4.7c-1.6,0-2.9,0.4-4.2,1l0.4,1
			c1.1-0.6,2.3-1,3.7-1c2.4,0,3.9,1.2,3.9,3.6v0.5c-1.1-0.3-2.3-0.5-3.9-0.5c-3.1,0-5.2,1.4-5.2,3.9v0c0,2.5,2.4,3.7,4.6,3.7
			c2.3,0,3.7-1.1,4.5-2.3v2H122.8z M121.7,55.2c0,2.2-2.1,3.7-4.5,3.7c-1.8,0-3.4-1-3.4-2.7v0c0-1.7,1.4-2.8,3.9-2.8
			c1.7,0,3,0.3,4,0.5V55.2z M138,47.7v10c0,3.6-2.4,5.6-5.8,5.6c-2,0-3.8-0.6-5.4-1.8l0.8-0.8c1.4,1,3,1.6,4.6,1.6
			c2.7,0,4.7-1.6,4.7-4.6V56c-1,1.5-2.6,2.7-5,2.7c-2.9,0-5.7-2.2-5.7-5.6v0c0-3.4,2.8-5.6,5.7-5.6c2.4,0,4,1.3,5,2.7v-2.4H138z
			 M136.9,53.1c0-2.7-2.4-4.5-4.9-4.5c-2.5,0-4.6,1.7-4.6,4.5v0c0,2.7,2.1,4.5,4.6,4.5C134.5,57.6,136.9,55.8,136.9,53.1L136.9,53.1
			z M152.3,59.6v-7.3c0-2.8-1.7-4.9-4.8-4.9c-2.2,0-3.5,1.1-4.3,2.5v-2.2h-1.1v11.9h1.1v-6.9c0-2.5,1.8-4.2,4.1-4.2
			c2.4,0,3.8,1.6,3.8,4.1v7.1H152.3z M167.2,53.7L167.2,53.7c0-3.4-2.6-6.2-6.1-6.2c-3.5,0-6.1,2.9-6.1,6.2v0c0,3.3,2.6,6.2,6.1,6.2
			C164.6,59.9,167.2,57,167.2,53.7 M165.9,53.7c0,2.8-2,5.1-4.8,5.1c-2.8,0-4.9-2.3-4.9-5.1v0c0-2.8,2-5.1,4.8-5.1
			C163.8,48.5,165.9,50.8,165.9,53.7L165.9,53.7z M174.1,53c-1.7-0.5-3.3-1-3.3-2.3v0c0-1.2,1.1-2.1,2.7-2.1c1.2,0,2.4,0.4,3.4,1.1
			l0.8-0.8c-1.2-0.8-2.8-1.3-4.2-1.3c-2.3,0-3.9,1.4-3.9,3.3v0c0,2.1,2.1,2.7,4.1,3.3c1.7,0.5,3.1,1,3.1,2.4v0
			c0,1.4-1.3,2.3-2.9,2.3c-1.5,0-2.9-0.5-4.1-1.5l-0.8,0.8c1.3,1,3.1,1.7,4.9,1.7c2.3,0,4.1-1.3,4.1-3.5v0
			C178,54.2,176,53.5,174.1,53 M182.2,56.4v-7.7h4.1l-1-1h-3.1v-3.8H181v12.6c0,2.3,1.5,3.3,3.3,3.3c0.7,0,1.3-0.1,1.9-0.4v-1.1
			c-0.7,0.3-1.2,0.4-1.7,0.4C183.2,58.7,182.2,58.1,182.2,56.4 M189.8,59.6h1.1V47.7h-1.1V59.6z M189.6,44.7h1.4v-1.4h-1.4V44.7z
			 M200.3,58.8c-2.7,0-4.9-2.3-4.9-5.1v0c0-2.8,2.1-5.1,4.8-5.1c1.8,0,2.9,0.9,3.9,1.9l0.8-0.8c-1.1-1.2-2.5-2.2-4.7-2.2
			c-3.4,0-6.1,2.9-6.1,6.2v0c0,3.3,2.6,6.2,6.1,6.2c2.2,0,3.6-1,4.8-2.3l-0.7-0.7C203.2,58,201.9,58.8,200.3,58.8 M212.2,53
			c-1.7-0.5-3.3-1-3.3-2.3v0c0-1.2,1.1-2.1,2.7-2.1c1.2,0,2.4,0.4,3.4,1.1l0.8-0.8c-1.2-0.8-2.8-1.3-4.2-1.3c-2.3,0-3.9,1.4-3.9,3.3
			v0c0,2.1,2.1,2.7,4.1,3.3c1.7,0.5,3.1,1,3.1,2.4v0c0,1.4-1.3,2.3-2.9,2.3c-1.5,0-2.9-0.5-4.1-1.5l-0.8,0.8c1.3,1,3.1,1.7,4.9,1.7
			c2.3,0,4.1-1.3,4.1-3.5v0C216.1,54.2,214.1,53.5,212.2,53 M217.6,47H217v-2.6h-0.9v-0.5h2.4v0.5h-0.9V47z M221.3,43.9l-0.8,2.1
			l-0.9-2.1h-0.8V47h0.6V45l0.8,2.1h0.4l0.8-2.1V47h0.6v-3.1H221.3z">
   </path>
   <path class="st0" d="M58.2,50.8l5.2,5.2c4.3-5.8,6.9-13,6.9-20.9c0-5.4-1.2-10.6-3.4-15.1c0,0-0.1-0.1-0.1-0.1
			c-0.1,0-0.2,0-0.2,0.1c0,0,0,0,0,0.1C68.9,29.6,65.9,41.1,58.2,50.8 M35.1,70.3c7.8,0,15-2.6,20.9-6.9l-5.2-5.2
			c-7.5,6-16.2,9.1-24.1,9.1c-2.3,0-4.5-0.3-6.6-0.8c0,0,0,0-0.1,0c-0.1,0-0.1,0.1-0.1,0.1c0,0.1,0,0.1,0.1,0.1
			C24.6,69,29.7,70.3,35.1,70.3">
   </path>
   <path class="st0" d="M53.3,16.8c3.9,3.9,3.8,9.6,3.4,12.6c-0.6,4.7-2.7,9.5-5.9,13.8l-14.8,0l7.4,7.4c-5.2,3.9-11.2,6.1-16.7,6.1
			c-2.8,0-6.8-0.6-9.8-3.6c-3.9-3.9-3.8-9.6-3.4-12.6c0.8-6.2,4.2-12.7,9.4-17.8c6-6,13.7-9.6,20.6-9.6
			C44.6,13.2,49.6,13.2,53.3,16.8">
   </path>
   <path class="st0" d="M3.2,49.7c0,0.1,0.1,0.1,0.2,0.1c0.1,0,0.1-0.1,0.1-0.2c-2.4-10.7,1.8-24,12-34.2c8.3-8.3,18.7-12.6,28-12.6
			c2.1,0,4.2,0.2,6.2,0.7c0.1,0,0.2,0,0.2-0.1c0-0.1,0-0.1-0.1-0.2C45.3,1.1,40.3,0,35.1,0C15.7,0,0,15.7,0,35.1
			C0,40.3,1.1,45.3,3.2,49.7">
   </path>
  </g>
 </g>
</svg>